HIERARCHY
ROOT Hips
{
	OFFSET 0.000000 0.000000 0.000000
	CHANNELS 6 Xposition Yposition Zposition Zrotation Yrotation Xrotation 
	JOINT LHipJoint
	{
		OFFSET 0.000000 0.000000 0.000000
		CHANNELS 3 Zrotation Yrotation Xrotation
		JOINT LeftUpLeg
		{
			OFFSET 1.363060 -1.794630 0.839290
			CHANNELS 3 Zrotation Yrotation Xrotation
			JOINT LeftLeg
			{
				OFFSET 2.448110 -6.726130 0.000000
				CHANNELS 3 Zrotation Yrotation Xrotation
				JOINT LeftFoot
				{
					OFFSET 2.562200 -7.039590 0.000000
					CHANNELS 3 Zrotation Yrotation Xrotation
					JOINT LeftToeBase
					{
						OFFSET 0.157640 -0.433110 2.322550
						CHANNELS 3 Zrotation Yrotation Xrotation
						End Site
						{
							OFFSET 0.000000 0.000000 0.000000
						}
					}
				}
			}
		}
	}
	JOINT RHipJoint
	{
		OFFSET 0.000000 0.000000 0.000000
		CHANNELS 3 Zrotation Yrotation Xrotation
		JOINT RightUpLeg
		{
			OFFSET -1.305520 -1.794630 0.839290
			CHANNELS 3 Zrotation Yrotation Xrotation
			JOINT RightLeg
			{
				OFFSET -2.542530 -6.985550 0.000000
				CHANNELS 3 Zrotation Yrotation Xrotation
				JOINT RightFoot
				{
					OFFSET -2.568260 -7.056230 0.000000
					CHANNELS 3 Zrotation Yrotation Xrotation
					JOINT RightToeBase
					{
						OFFSET -0.164730 -0.452590 2.363150
						CHANNELS 3 Zrotation Yrotation Xrotation
						End Site
						{
							OFFSET 0.000000 0.000000 0.000000
						}
					}
				}
			}
		}
	}
}
MOTION
Frames: 16
Frame Time: 0.008333
-14.407341 15.816316 0.237737 -20.823225 89.190957 0.045677 -11.375540 1.190850 -4.650227 -3.876193 7.791884 -13.670389 -1.378574 2.621159 45.952568 2.230073 12.131917 -18.690511 -2.545100 -0.000000 -59.680599 8.482530 1.546520 -3.685236 15.588112 -5.151568 -58.818441 2.009151 -5.145031 54.245473 -0.517084 1.281754 -14.125035 0.081000 -0.000000 -19.252400
-14.274273 15.813639 0.271199 -23.558144 89.239571 -2.626227 -11.439056 1.212914 -4.584482 -3.621162 7.713509 -13.890992 -1.224955 2.685471 46.855906 2.156563 12.083436 -17.308368 -2.213500 0.000000 -61.324100 8.492738 1.436018 -3.692764 15.736401 -5.237523 -58.593984 2.011521 -5.191620 54.778630 -0.527383 1.383212 -14.761208 0.088000 0.000000 -19.792900
-14.143818 15.812960 0.304626 -24.096325 89.231942 -3.066339 -11.494655 1.261121 -4.512991 -3.423723 7.623521 -14.238867 -1.074886 2.770957 47.844564 2.094494 12.086565 -15.835550 -1.874700 -0.000000 -62.634000 8.516013 1.370319 -3.699269 15.856971 -5.302624 -58.380474 2.006237 -5.218122 55.253348 -0.534052 1.487900 -15.313223 0.091601 0.000000 -20.132900
-14.016223 15.814163 0.337634 -23.252634 89.184624 -2.097731 -11.542116 1.324086 -4.441801 -3.274448 7.535326 -14.697932 -0.925735 2.870723 48.910493 2.046223 12.142240 -14.293097 -1.531799 0.000000 -63.447400 8.549605 1.337080 -3.704696 15.957885 -5.351234 -58.176181 1.997058 -5.229783 55.673945 -0.538523 1.592922 -15.803625 0.092400 -0.000000 -20.287100
-13.891707 15.817169 0.369939 -21.060725 89.080885 0.239473 -11.585018 1.401080 -4.376275 -3.171983 7.468982 -15.251908 -0.781675 2.984700 50.037741 2.014300 12.254650 -12.717726 -1.190300 0.000000 -63.594100 8.589443 1.336620 -3.711466 16.042585 -5.377899 -57.972764 1.984443 -5.224740 56.045312 -0.542448 1.696002 -16.257474 0.091800 -0.000000 -20.282300
-13.770418 15.821860 0.401428 -17.285117 88.892669 4.173046 -11.633464 1.494816 -4.321532 -3.122577 7.446608 -15.881129 -0.649805 3.115705 51.205317 2.000993 12.430185 -11.161228 -0.858201 -0.000000 -62.913401 8.626397 1.372594 -3.723225 16.107376 -5.374473 -57.757871 1.966587 -5.197641 56.372996 -0.547362 1.794992 -16.694943 0.090500 -0.000000 -20.188300
-13.652305 15.828157 0.431808 -13.102731 88.660368 8.519001 -11.700171 1.581659 -4.281446 -3.115424 7.475453 -16.570004 -0.525598 3.251045 52.404643 2.005899 12.663763 -9.683460 -0.543600 0.000000 -61.306300 8.644207 1.415041 -3.735511 16.156912 -5.347739 -57.530424 1.949482 -5.156714 56.652777 -0.555977 1.883194 -17.141211 0.090299 0.000000 -19.992100
-13.537318 15.835962 0.461040 -9.241414 88.412344 12.542338 -11.781807 1.646270 -4.260766 -3.143397 7.560093 -17.300225 -0.407260 3.380971 53.623375 2.028569 12.956246 -8.354625 -0.257499 -0.000000 -58.721000 8.642036 1.445647 -3.744428 16.193281 -5.302423 -57.285882 1.937951 -5.109936 56.879275 -0.569859 1.956121 -17.610273 0.092000 -0.000001 -19.720600
-13.425409 15.845200 0.489306 -5.884294 88.154795 16.053427 -11.868588 1.685337 -4.264082 -3.205337 7.705739 -18.053743 -0.297221 3.502301 54.844636 2.068092 13.311862 -7.244121 -0.010900 0.000000 -55.191200 8.627089 1.461176 -3.748798 16.213690 -5.238815 -57.015040 1.933243 -5.060736 57.048263 -0.589319 2.010959 -18.100458 0.096400 -0.000000 -19.469300
-13.316381 15.855815 0.516632 -3.531862 87.908165 18.549796 -11.943869 1.695162 -4.292932 -3.287234 7.911546 -18.823722 -0.195492 3.610760 56.056523 2.122209 13.728562 -6.403570 0.186900 0.000000 -50.882600 8.612463 1.456752 -3.745033 16.227457 -5.156845 -56.713503 1.938231 -5.014654 57.152690 -0.614399 2.045195 -18.607022 0.103900 0.000000 -19.254000
-13.209982 15.867729 0.543128 -2.116803 87.669855 20.099571 -12.000296 1.681155 -4.346013 -3.383604 8.175798 -19.607287 -0.105029 3.708481 57.243301 2.189012 14.205701 -5.862430 0.328500 0.000000 -46.068700 8.605026 1.437581 -3.732873 16.239075 -5.052716 -56.377563 1.951837 -4.970785 57.191631 -0.644297 2.059457 -19.118659 0.114700 0.000000 -19.077400
-13.105961 15.880907 0.568847 -1.415087 87.435998 20.928861 -12.037974 1.648877 -4.418678 -3.491958 8.488433 -20.406297 -0.027578 3.798309 58.390132 2.267052 14.741496 -5.620863 0.410400 0.000001 -41.101101 8.605271 1.408748 -3.713141 16.251081 -4.925652 -56.007583 1.972148 -4.926797 57.166993 -0.677808 2.056588 -19.622999 0.128700 -0.000000 -18.898900
-13.004059 15.895273 0.593869 -1.099999 87.201506 21.367410 -12.061673 1.603495 -4.504963 -3.615861 8.833661 -21.223170 0.035959 3.883057 59.484329 2.355256 15.331454 -5.659865 0.430800 0.000000 -36.299500 8.609771 1.375063 -3.687596 16.260903 -4.778463 -55.607889 1.996334 -4.880101 57.083872 -0.713102 2.041047 -20.103111 0.145100 0.000000 -18.711800
-12.904088 15.910754 0.618351 -0.823617 86.961656 21.765531 -12.077372 1.549715 -4.598343 -3.765028 9.190408 -22.059641 0.085716 3.964946 60.515736 2.452885 15.969211 -5.941420 0.391200 -0.000000 -31.965200 8.614226 1.341377 -3.659052 16.260911 -4.619130 -55.186025 2.021089 -4.828874 56.951862 -0.747972 2.018216 -20.541452 0.162800 -0.000000 -18.541000
-12.805799 15.927248 0.642254 -0.541980 86.725157 22.171285 -12.086297 1.488999 -4.691854 -3.939953 9.535939 -22.922446 0.123534 4.043901 61.482584 2.558529 16.640569 -6.426285 0.293000 0.000000 -28.248600 8.617654 1.308529 -3.628397 16.252317 -4.455751 -54.752347 2.045665 -4.773903 56.777592 -0.781019 1.992056 -20.929719 0.180700 -0.000000 -18.352300
-12.709015 15.944672 0.665540 -0.186545 86.498358 22.656388 -12.090036 1.422897 -4.779210 -4.142987 9.848974 -23.817373 0.151081 4.119893 62.384324 2.670286 17.327616 -7.072809 0.139099 -0.000000 -25.203200 8.618859 1.277757 -3.597074 16.234741 -4.297085 -54.317294 2.069254 -4.715987 56.569623 -0.811289 1.965423 -21.264122 0.198000 0.000000 -18.135100
